<svg width="18" height="14" viewBox="0 0 18 14" fill="none" xmlns="http://www.w3.org/2000/svg">
    <path fill-rule="evenodd" clip-rule="evenodd" d="M8.88235 0C4.84596 0 1.37169 2.83605 0 6.86364C1.37169 10.8912 4.84596 13.7273 8.88235 13.7273C12.9187 13.7273 16.393 10.8912 17.7647 6.86364C16.3892 2.83605 12.9187 0 8.88235 0ZM8.88235 11.4376C6.61989 11.4376 4.84595 9.42378 4.84595 6.86364C4.84595 4.29939 6.62369 2.28971 8.88235 2.28971C11.141 2.28971 12.9187 4.3035 12.9187 6.86364C12.9187 9.42789 11.1448 11.4376 8.88235 11.4376ZM6.46001 6.86363C6.46001 5.30971 7.51066 4.11818 8.88235 4.11818C10.254 4.11818 11.3047 5.30971 11.3047 6.86363C11.3047 8.41756 10.254 9.60909 8.88235 9.60909C7.51066 9.60909 6.46001 8.41756 6.46001 6.86363Z" fill="#A4A4A4"/>
</svg>
